<?xml version="1.0" encoding="UTF-8" standalone="no"?>
<!-- Created with Inkscape (http://www.inkscape.org/) -->

<svg
   xmlns:dc="http://purl.org/dc/elements/1.1/"
   xmlns:cc="http://creativecommons.org/ns#"
   xmlns:rdf="http://www.w3.org/1999/02/22-rdf-syntax-ns#"
   xmlns:svg="http://www.w3.org/2000/svg"
   xmlns="http://www.w3.org/2000/svg"
   xmlns:sodipodi="http://sodipodi.sourceforge.net/DTD/sodipodi-0.dtd"
   xmlns:inkscape="http://www.inkscape.org/namespaces/inkscape"
   width="146.66254"
   height="465.94547"
   id="svg3067"
   version="1.1"
   inkscape:version="0.48.2 r9819"
   sodipodi:docname="gent.svg">
  <defs
     id="defs3069" />
  <sodipodi:namedview
     id="base"
     pagecolor="#ffffff"
     bordercolor="#666666"
     borderopacity="1.0"
     inkscape:pageopacity="0.0"
     inkscape:pageshadow="2"
     inkscape:zoom="0.49497475"
     inkscape:cx="-356.82257"
     inkscape:cy="53.853553"
     inkscape:document-units="px"
     inkscape:current-layer="layer1"
     showgrid="false"
     inkscape:window-width="1400"
     inkscape:window-height="1014"
     inkscape:window-x="0"
     inkscape:window-y="0"
     inkscape:window-maximized="0"
     fit-margin-top="0"
     fit-margin-left="0"
     fit-margin-right="0"
     fit-margin-bottom="0" />
  <metadata
     id="metadata3072">
    <rdf:RDF>
      <cc:Work
         rdf:about="">
        <dc:format>image/svg+xml</dc:format>
        <dc:type
           rdf:resource="http://purl.org/dc/dcmitype/StillImage" />
        <dc:title></dc:title>
      </cc:Work>
    </rdf:RDF>
  </metadata>
  <g
     inkscape:label="Layer 1"
     inkscape:groupmode="layer"
     id="layer1"
     transform="translate(-150.69607,71.382639)">
    <path
       style="opacity:0.8;fill:#ff0000;fill-opacity:1;stroke:none"
       d="m 49.94897,276.69031 c -8.06936,-2.65264 -11.19546,-3.2087 -19.24608,-3.42346 -9.44852,-0.25204 -9.66094,-0.30612 -12.49798,-3.18172 -1.58736,-1.60892 -3.55672,-5.00174 -4.37634,-7.53958 -1.41584,-4.38388 -3.87874,-25.29526 -3.074,-26.1 0.64924,-0.64924 66.84272,-5.10884 67.41956,-4.54218 0.62746,0.61634 -16.67474,46.25276 -17.9728,47.4052 -0.33996,0.30182 -4.95352,-0.8764 -10.25236,-2.61826 z"
       id="voormuide"
       inkscape:connector-curvature="0"
       inkscape:label="#path3018-8"
       inkscape:transform-center-x="-43.697668"
       inkscape:transform-center-y="256.98739" />
    <path
       style="opacity:0.8;fill:#ff0000;fill-opacity:1;stroke:none"
       d="m 90.42889,373.89293 -25.90946,-90.66992 9.60242,-25.62902 9.6024,-25.62902 3.98654,0.29838 c 22.68126,1.6977 48.2375,15.978 55.29584,30.89816 5.01728,10.60572 5.75426,24.23972 1.9095,35.32552 -3.54022,10.20772 -15.5632,50.54116 -19.74736,66.24636 -4.34718,16.31706 -4.43686,19.05302 -1.32196,40.33316 1.28108,8.75206 2.68084,21.76524 3.11054,28.91816 0.569,9.4715 1.18268,13.57834 2.25848,15.11426 1.91142,2.72896 1.89236,7.57722 -0.0374,9.50698 -1.39818,1.39816 -10.73446,5.95688 -12.19976,5.95688 -0.35218,0 -12.29958,-40.80146 -26.5498,-90.6699 z"
       id="afrika"
       inkscape:connector-curvature="0"
       sodipodi:nodetypes="ccccssssssssscc"
       inkscape:label="#path3020-5"
       inkscape:transform-center-x="-105.24295"
       inkscape:transform-center-y="349.64654" />
    <path
       style="opacity:0.8;fill:#ff0000;fill-opacity:1;stroke:none"
       d="m 10.02595,231.49037 c -0.52944,-0.85666 -5.91782,-89.92504 -5.481,-90.59934 0.0844,-0.1304 3.62528,-0.66042 7.86862,-1.17806 12.67984,-1.5468 18.59244,-4.22792 20.34056,-9.22358 0.6375,-1.82182 8.22546,-4.00434 12.8365,-3.69214 1.24352,0.0842 1.6057,0.9366 1.6057,3.7789 0,2.0186 0.4129,3.67018 0.91756,3.67018 0.50464,0 0.91754,1.69556 0.91754,3.7679 l 0,3.76792 6.19344,-0.25548 c 3.40638,-0.1404 7.88638,-0.1844 9.95552,-0.0978 l 3.76212,0.1578 1.0675,10.78116 c 2.13846,21.59714 3.7945,44.62834 3.76684,52.38656 -0.0314,8.80126 -1.42108,21.23096 -2.49252,22.2936 -0.74824,0.7421 -15.01146,1.98448 -41.06258,3.5767 -9.08372,0.55518 -17.20364,1.20388 -18.04432,1.44154 -0.84068,0.23768 -1.80882,-0.0214 -2.15148,-0.57588 l 0,0 z"
       id="muide"
       inkscape:connector-curvature="0"
       inkscape:label="#path3022-6"
       inkscape:transform-center-x="-38.452419"
       inkscape:transform-center-y="180.84349" />
    <path
       style="opacity:0.8;fill:#ff0000;fill-opacity:1;stroke:none"
       d="m 4.60971,132.18185 c -0.27056,-2.14476 -1.37862,-19.1767 -2.46236,-37.84876 -2.64852,-45.6328 -2.1026,-52.98398 5.27376,-71.01394 2.93196,-7.16662 10.37184,-24.0104 10.90538,-24.6897 0.29342,-0.37358 20.28778,8.00388 29.20722,12.23758 7.61508,3.61458 8.14416,4.28956 9.24742,11.79746 l 0.65944,4.4877 -3.5164,-0.5389 c -6.5536,-1.00432 -21.40856,-1.81006 -21.40856,-1.1612 0,0.35482 1.8331,11.6628 4.07356,25.12884 3.51358,21.11808 8.06398,54.98178 8.95448,66.6385 l 0.27636,3.61788 -7.79912,2.48396 c -6.481,2.06414 -7.94566,2.88792 -8.66608,4.8741 -1.1206,3.0895 -6.98416,5.9327 -14.46648,7.01474 -9.69794,1.4024 -9.7205,1.39576 -10.27862,-3.02826 z"
       id="meulestede"
       inkscape:connector-curvature="0"
       inkscape:label="#path3024-7"
       inkscape:transform-center-x="-28.372249"
       inkscape:transform-center-y="68.709575" />
  </g>
</svg>
